<svg xmlns="http://www.w3.org/2000/svg" width="900" height="1730" version="1.1" viewBox="0 0 900 1730">
  <g fill="none" fill-rule="evenodd" stroke="none" stroke-width="1">
    <path stroke="#000" stroke-width="8" d="M592.139943,33.9966232 L896,33.9999564 L896,1726 L4,1726 L4,33.9999564 L307.860057,33.9966232 C275.679884,68.6243836 256,115.028488 256,166.029039 C256,219.600659 277.71419,268.100659 312.821284,303.207754 C347.928379,338.314849 396.428379,360.029039 450,360.029039 C503.571621,360.029039 552.071621,338.314849 587.178716,303.207754 C622.28581,268.100659 644,219.600659 644,166.029039 C644,115.028488 624.320116,68.6243836 592.139943,33.9966232 L592.139943,33.9966232 Z"/>
    <path fill="#000" fill-rule="nonzero" d="M0.0893544389,153.3991 C3.13511063,66.180054 76.2826842,-2.03116187 163.487569,1.01409982 C203.080775,2.39672502 238.661686,18.3024059 265.562761,43.3056556 L265.562761,43.3056556 L266.120577,70.6349371 C257.658473,59.7119971 246.854694,50.526462 232.928461,41.5158395 C227.718243,38.254731 222.494979,35.3248859 216.953415,32.7134555 C215.00441,32.0637774 213.042555,32.7134555 212.392844,34.3440097 C211.743132,36.2929133 212.392844,38.2546658 214.023483,38.9043438 C219.246746,41.5158395 224.138664,44.1273351 229.030581,47.3884436 C245.770023,58.3404736 257.670939,69.3099398 266.383811,83.5072906 L267.043641,115.875715 C266.857282,117.000781 266.64008,118.116541 266.39211,119.222416 C266.222846,118.767736 266.04971,118.305276 265.871938,117.83504 C256.737098,93.3767259 240.11371,73.492443 217.934408,60.1166805 C216.303899,59.1358043 214.354763,59.4670024 213.373836,61.0975567 C212.392909,62.7279805 212.724124,64.6770146 214.354763,65.6578908 C235.235424,78.3696917 250.879124,96.9560533 259.363666,120.115141 C260.797888,123.973431 261.8819,127.245362 262.701373,130.352551 C261.898774,132.151324 261.001739,133.913813 260.012129,135.636998 C260.024407,135.619137 259.770889,136.04158 259.30681,136.812759 L259.057479,137.226985 C256.970948,140.692764 251.795575,149.274125 246.850037,157.469383 L246.220196,158.513065 C242.34703,164.930941 238.703821,170.964445 236.909681,173.929425 L236.909681,173.929425 L234.902639,172.724005 C232.230765,171.121531 228.780892,171.984086 227.162653,174.710561 L227.162653,174.710561 L201.846096,216.92739 C200.215491,219.612105 201.119537,223.063427 203.804521,224.680217 L203.804521,224.680217 L210.490819,228.67972 L202.760492,241.493872 C201.288783,243.989898 202.063715,247.173923 204.545593,248.658997 C206.986392,250.128777 210.184741,249.340522 211.655491,246.871967 L211.655491,246.871967 L219.401553,234.003071 L225.774424,237.853039 C228.487231,239.470907 231.923784,238.593923 233.539126,235.950429 L233.539126,235.950429 L258.844349,193.662314 C260.474953,190.977599 259.571392,187.512436 256.885924,185.909487 L256.885924,185.909487 L254.22907,184.279856 L277.362592,145.889269 C282.326613,137.353824 285.52302,128.285945 287.048416,118.702475 C287.08911,118.330059 287.145085,117.916636 287.159089,117.515606 L287.159089,117.515606 L284.93744,64.9301237 C305.443241,92.6728781 317.209082,127.256102 315.911016,164.427835 C312.866373,251.615019 239.692535,319.867852 152.459328,316.821601 C65.2544432,313.776339 -2.95590725,240.603985 0.0893544389,153.3991 Z M32.0559558,194.774894 C31.4063092,192.82586 29.4443241,191.844983 27.813685,192.494661 C26.1830458,193.144274 24.883622,195.106157 25.5333339,196.736711 C34.9975637,228.382508 55.2158589,255.769297 83.2807899,273.705394 C88.4910082,276.966502 93.7142716,279.896347 99.2558358,282.507778 C99.5743323,282.838976 100.224044,282.838976 100.55526,282.838976 C101.854683,282.838976 102.835611,282.17658 103.485322,280.877224 L103.485322,280.877224 C104.136143,279.245365 103.486431,277.296331 101.855792,276.633934 C96.6325287,274.022439 91.7406112,271.410943 86.8486936,268.149835 C60.4264686,250.862699 40.8587984,224.774483 32.0559558,194.774894 Z M46.41406,156.952297 C44.4520749,156.952297 43.1526512,158.582981 42.8214357,160.532015 C42.8214357,173.577754 45.4330674,186.303904 49.9936391,198.367396 C59.1284798,222.82571 75.7652391,242.722385 97.95726,256.072711 C98.2884754,256.403909 98.9381873,256.403909 99.5878992,256.403909 C100.887323,256.403909 101.86825,255.754231 102.517962,254.773355 C103.498889,253.142931 103.167674,251.193897 101.537035,250.21302 C80.656374,237.50122 65.0126739,218.914858 56.5281321,195.75577 C52.285796,184.343195 50.0054449,172.279702 49.6742295,160.21621 C49.6742295,158.254457 48.3748058,156.955101 46.4129511,156.955101 L46.4129511,156.955101 Z M69.5615702,158.252957 C67.5997156,158.584286 66.3002918,159.883642 66.3002918,161.845394 C66.6316377,169.030268 67.9310615,176.202098 69.8929161,183.373928 C76.7448619,206.851626 92.3895403,226.087275 113.600569,238.150767 C118.492486,241.093591 123.702705,243.373759 128.925968,245.004313 C130.556477,245.322793 131.8559,245.972471 133.48654,246.303669 L133.48654,246.303669 L134.467467,246.303669 C136.098106,246.303669 137.39753,245.322793 137.728745,244.023437 C138.378262,242.075055 137.07887,240.4445 135.43548,239.782104 C134.123272,239.463624 132.492632,238.813946 131.193209,238.482748 C126.301291,236.852194 121.409374,234.90329 116.848802,232.29186 C96.9641355,221.194308 82.6066836,203.258863 76.4154728,181.412045 C74.4536182,174.889828 73.4854099,168.367611 73.1541944,161.514066 C72.8228485,159.552313 71.1922094,158.252957 69.5615702,158.252957 Z M98.5927527,174.559934 C97.943106,172.92938 95.981121,171.630024 94.3504818,172.279702 L94.3504818,172.279702 C92.7199078,172.611553 91.738961,174.57324 91.751577,176.522274 L91.751577,176.522274 L92.082915,177.171952 C96.9748325,194.458436 108.720653,209.133424 124.695699,217.935808 C125.34541,218.585486 126.326338,218.903966 126.97605,219.235164 C127.625762,219.566362 127.956977,219.566362 128.606689,219.566362 C129.906113,219.566362 130.88704,218.903966 131.536752,217.60461 C132.186464,215.974186 131.536752,214.025152 129.906113,213.044276 C129.243682,212.713077 128.59397,212.394598 127.944258,212.063399 C113.599851,204.22826 103.153324,191.183826 98.5927527,175.209612 L98.5927527,175.209612 Z M196.431756,137.385189 C185.017282,116.187984 158.594404,108.035213 137.396095,119.449093 C116.197786,130.862972 108.04459,157.284473 119.459064,178.481678 C130.873538,199.678883 157.296415,207.831655 178.494725,196.417775 C199.693034,185.320223 207.84623,158.582394 196.431756,137.385189 Z M182.087936,69.8836352 C180.457362,69.2339571 178.508227,70.5333132 178.177011,72.1638674 C177.527299,73.7943565 178.826723,75.7433905 180.457362,76.0745887 C181.76957,76.3930686 183.400209,77.0427466 184.699633,77.3739448 C189.591551,79.004499 194.483468,80.9534027 199.04404,83.5648331 C218.928706,94.6623853 233.286158,112.59783 239.477369,134.444648 C241.439224,140.966865 241.778761,142.664754 242.109977,149.5183 C242.441323,151.480052 243.740746,152.779408 245.70384,152.777714 C247.334479,152.459102 248.965119,151.147028 248.965119,149.197994 C248.633773,142.013119 247.96302,139.665617 246.001165,132.493787 C239.145958,109.017067 223.503562,89.7817451 201.973907,78.0365368 C197.08199,75.0937125 191.871771,72.8135455 186.648508,71.1829912 C185.017999,70.8645114 183.718575,70.2148333 182.087936,69.8836352 Z M188.927424,96.966815 C187.296915,95.9859388 185.34778,96.6356168 184.366852,98.2661711 C183.385925,99.8965949 184.035637,101.845629 185.666276,102.826505 C186.647203,103.157703 187.296915,103.476183 187.946627,103.807381 C202.291034,111.642521 212.737561,124.686955 217.298132,140.661168 L217.298132,140.661168 L217.298132,141.310846 C217.629348,142.610202 219.259987,143.591079 220.559411,143.591079 L220.559411,143.591079 L221.540338,143.591079 C223.170847,143.259424 224.151774,141.297508 224.151774,139.679705 L224.151774,139.679705 L223.820559,139.030027 C218.928641,121.743543 207.182821,107.068555 191.207775,98.2661711 C190.558063,97.616493 189.577136,97.2980132 188.927424,96.966815 Z" transform="translate(292 8.029)"/>
    <path fill="#000" fill-rule="nonzero" d="M148.926923,135.922903 C152.027631,131.046562 151.81122,120.626909 145.375656,117.075641 C140.499315,114.633036 134.956003,115.525243 132.296987,117.742568 C128.087617,120.185173 124.094659,128.387501 124.094659,136.58983 L138.50727,136.58983 L138.50727,152.552795 L108.573384,152.552795 C109.01512,160.755123 113.449725,167.407098 121.877334,171.174776 C120.768671,174.726044 115.66705,181.81971 108.798664,181.378019 C107.464811,188.913376 106.139648,193.131614 99.9293649,200 C93.7190814,193.122745 92.394008,188.913376 91.0600654,181.378019 C84.1828105,181.819754 79.0900587,174.726044 77.9813962,171.174776 C86.4090047,167.407098 90.8436544,160.971534 91.2853456,152.552795 L61.3514595,152.552795 L61.3514595,136.58983 L75.7640713,136.58983 C75.7640713,128.387501 71.7711127,120.401584 67.5617431,117.742568 C64.9027271,115.525243 59.3594149,114.641861 54.483074,117.075641 C48.0563795,120.84332 47.8310993,131.262973 50.9318064,135.922903 C20.5566727,130.379591 23.6564929,101.113119 33.8601786,90.4677425 C42.2877871,81.8237231 51.3734975,80.4897805 58.2507524,83.1487965 C74.2137178,88.9173889 84.8586511,107.980618 85.5260659,136.364594 L93.9536743,136.364594 C93.9536743,110.42411 89.5190246,102.222225 77.7654288,69.8448471 C72.2048214,54.3235729 75.7559781,35.4763113 86.1757421,17.9638793 C89.9434205,11.7535958 94.6033505,5.99387264 100.146663,0 C105.464695,5.98500334 110.349905,11.7535958 114.117583,17.9638793 C124.537237,35.4771983 128.088504,54.3235729 122.319912,69.8448471 C110.566316,102.222225 106.131666,110.63919 106.131666,136.364594 L114.559275,136.364594 C115.00101,107.980618 125.871179,88.9182758 141.834588,83.1487965 C148.928254,80.4897805 158.022834,81.8149425 166.225162,90.4677425 C176.419756,100.887396 179.303831,130.153423 148.928254,135.922903 L148.926923,135.922903 Z" transform="rotate(135 90.858 107.929)"/>
    <path fill="#000" fill-rule="nonzero" d="M111.695193,101.942177 C114.020723,98.2849214 113.858415,90.4701815 109.031742,87.8067309 C105.374486,85.974777 101.217002,86.6439324 99.2227401,88.3069261 C96.0657129,90.1388799 93.0709939,96.2906261 93.0709939,102.442372 L103.880453,102.442372 L103.880453,114.414596 L81.4300382,114.414596 C81.7613398,120.566342 85.0872939,125.555323 91.4080002,128.381082 C90.5765034,131.044533 86.7502875,136.364782 81.5989984,136.033514 C80.5986079,141.685032 79.6047364,144.848711 74.9470237,150 C70.289311,144.842059 69.295506,141.685032 68.295049,136.033514 C63.1371079,136.364816 59.317544,131.044533 58.4860472,128.381082 C64.8067535,125.555323 68.1327408,120.728651 68.4640092,114.414596 L46.0135947,114.414596 L46.0135947,102.442372 L56.8230535,102.442372 C56.8230535,96.2906261 53.8283345,90.3011881 50.6713073,88.3069261 C48.6770453,86.6439324 44.5195611,85.9813958 40.8623055,87.8067309 C36.0422846,90.6324897 35.8733245,98.4472296 38.1988548,101.942177 C15.4175046,97.7846929 17.7423697,75.8348395 25.395134,67.8508069 C31.7158403,61.3677923 38.5301231,60.3673353 43.6880643,62.3615974 C55.6602883,66.6880417 63.6439883,80.9854634 64.1445494,102.273445 L70.4652558,102.273445 C70.4652558,82.8180825 67.1392684,76.6666689 58.3240716,52.3836353 C54.1536161,40.7426797 56.8169836,26.6072335 64.6318066,13.4729095 C67.4575654,8.81519684 70.9525129,4.49540448 75.1099971,0 C79.0985211,4.48875251 82.7624287,8.81519684 85.5881876,13.4729095 C93.4029274,26.6078987 96.0663781,40.7426797 91.7399337,52.3836353 C82.9247369,76.6666689 79.5987496,82.9793928 79.5987496,102.273445 L85.9194559,102.273445 C86.2507575,80.9854634 94.4033844,66.6887069 106.375941,62.3615974 C111.69619,60.3673353 118.517125,61.3612069 124.668871,67.8508069 C132.314817,75.6655467 134.477873,97.6150675 111.69619,101.942177 L111.695193,101.942177 Z" transform="rotate(45 -1576.563 754.504)"/>
    <path fill="#000" fill-rule="nonzero" d="M148.926923,135.922903 C152.027631,131.046562 151.81122,120.626909 145.375656,117.075641 C140.499315,114.633036 134.956003,115.525243 132.296987,117.742568 C128.087617,120.185173 124.094659,128.387501 124.094659,136.58983 L138.50727,136.58983 L138.50727,152.552795 L108.573384,152.552795 C109.01512,160.755123 113.449725,167.407098 121.877334,171.174776 C120.768671,174.726044 115.66705,181.81971 108.798664,181.378019 C107.464811,188.913376 106.139648,193.131614 99.9293649,200 C93.7190814,193.122745 92.394008,188.913376 91.0600654,181.378019 C84.1828105,181.819754 79.0900587,174.726044 77.9813962,171.174776 C86.4090047,167.407098 90.8436544,160.971534 91.2853456,152.552795 L61.3514595,152.552795 L61.3514595,136.58983 L75.7640713,136.58983 C75.7640713,128.387501 71.7711127,120.401584 67.5617431,117.742568 C64.9027271,115.525243 59.3594149,114.641861 54.483074,117.075641 C48.0563795,120.84332 47.8310993,131.262973 50.9318064,135.922903 C20.5566727,130.379591 23.6564929,101.113119 33.8601786,90.4677425 C42.2877871,81.8237231 51.3734975,80.4897805 58.2507524,83.1487965 C74.2137178,88.9173889 84.8586511,107.980618 85.5260659,136.364594 L93.9536743,136.364594 C93.9536743,110.42411 89.5190246,102.222225 77.7654288,69.8448471 C72.2048214,54.3235729 75.7559781,35.4763113 86.1757421,17.9638793 C89.9434205,11.7535958 94.6033505,5.99387264 100.146663,0 C105.464695,5.98500334 110.349905,11.7535958 114.117583,17.9638793 C124.537237,35.4771983 128.088504,54.3235729 122.319912,69.8448471 C110.566316,102.222225 106.131666,110.63919 106.131666,136.364594 L114.559275,136.364594 C115.00101,107.980618 125.871179,88.9182758 141.834588,83.1487965 C148.928254,80.4897805 158.022834,81.8149425 166.225162,90.4677425 C176.419756,100.887396 179.303831,130.153423 148.928254,135.922903 L148.926923,135.922903 Z" transform="rotate(-135 459.142 -37.046)"/>
    <path fill="#000" fill-rule="nonzero" d="M111.695193,101.942177 C114.020723,98.2849214 113.858415,90.4701815 109.031742,87.8067309 C105.374486,85.974777 101.217002,86.6439324 99.2227401,88.3069261 C96.0657129,90.1388799 93.0709939,96.2906261 93.0709939,102.442372 L103.880453,102.442372 L103.880453,114.414596 L81.4300382,114.414596 C81.7613398,120.566342 85.0872939,125.555323 91.4080002,128.381082 C90.5765034,131.044533 86.7502875,136.364782 81.5989984,136.033514 C80.5986079,141.685032 79.6047364,144.848711 74.9470237,150 C70.289311,144.842059 69.295506,141.685032 68.295049,136.033514 C63.1371079,136.364816 59.317544,131.044533 58.4860472,128.381082 C64.8067535,125.555323 68.1327408,120.728651 68.4640092,114.414596 L46.0135947,114.414596 L46.0135947,102.442372 L56.8230535,102.442372 C56.8230535,96.2906261 53.8283345,90.3011881 50.6713073,88.3069261 C48.6770453,86.6439324 44.5195611,85.9813958 40.8623055,87.8067309 C36.0422846,90.6324897 35.8733245,98.4472296 38.1988548,101.942177 C15.4175046,97.7846929 17.7423697,75.8348395 25.395134,67.8508069 C31.7158403,61.3677923 38.5301231,60.3673353 43.6880643,62.3615974 C55.6602883,66.6880417 63.6439883,80.9854634 64.1445494,102.273445 L70.4652558,102.273445 C70.4652558,82.8180825 67.1392684,76.6666689 58.3240716,52.3836353 C54.1536161,40.7426797 56.8169836,26.6072335 64.6318066,13.4729095 C67.4575654,8.81519684 70.9525129,4.49540448 75.1099971,0 C79.0985211,4.48875251 82.7624287,8.81519684 85.5881876,13.4729095 C93.4029274,26.6078987 96.0663781,40.7426797 91.7399337,52.3836353 C82.9247369,76.6666689 79.5987496,82.9793928 79.5987496,102.273445 L85.9194559,102.273445 C86.2507575,80.9854634 94.4033844,66.6887069 106.375941,62.3615974 C111.69619,60.3673353 118.517125,61.3612069 124.668871,67.8508069 C132.314817,75.6655467 134.477873,97.6150675 111.69619,101.942177 L111.695193,101.942177 Z" transform="rotate(-45 2101.563 -150.827)"/>
  </g>
</svg>
