<svg xmlns="http://www.w3.org/2000/svg" width="100" height="100" version="1.1" viewBox="0 0 100 100">
  <path fill="#272727" fill-rule="nonzero" stroke="none" stroke-width="1" d="M91.0644531,90.3671875 L78.6132812,78.2089844 C85.8072917,70.624349 89.4042969,61.9492188 89.4042969,52.1835938 C89.4042969,39.7161458 84.8470052,29.608724 75.7324219,21.8613281 C68.1477865,15.4160156 59.5703125,12.1933594 50,12.1933594 C39.453125,12.1933594 30.3059896,15.8717448 22.5585938,23.2285156 C14.5833333,30.813151 10.5957031,40.2858073 10.5957031,51.6464844 C10.5957031,63.235026 14.8111979,72.7565104 23.2421875,80.2109375 C30.9895833,86.9817708 39.860026,90.3671875 49.8535156,90.3671875 C57.5683594,90.3671875 64.5670573,88.3489583 70.8496094,84.3125 L70.8496094,84.3125 L76.7578125,90.3671875 L91.0644531,90.3671875 Z M49.4628906,79.7226562 C42.2363281,79.7226562 35.8072917,77.0533854 30.1757812,71.7148438 C24.7721354,66.5390625 22.0703125,59.8821615 22.0703125,51.7441406 C22.0703125,43.4108073 24.6907552,36.5260417 29.9316406,31.0898438 C35.139974,25.6210938 41.780599,22.8867188 49.8535156,22.8867188 C57.828776,22.8867188 64.5019531,25.6210938 69.8730469,31.0898438 C75.2441406,36.5585938 77.9296875,43.3457031 77.9296875,51.4511719 C77.9296875,58.8404948 75.5208333,65.0416667 70.703125,70.0546875 L70.703125,70.0546875 L59.765625,59.1660156 L45.0683594,59.1660156 L62.7929688,76.3535156 C58.8216146,78.5996094 54.3782552,79.7226562 49.4628906,79.7226562 Z"/>
</svg>
