<svg xmlns="http://www.w3.org/2000/svg" width="180" height="1080" version="1.1" viewBox="0 0 180 1080">
  <path fill="#272727" fill-rule="nonzero" stroke="none" stroke-width="1" d="M83.28,205.92 C96.56,205.92 107.32,201.96 115.56,194.04 C123.8,186.12 127.92,175.6 127.92,162.48 L127.92,162.48 L127.92,38.88 C127.92,38.08 127.64,37.4 127.08,36.84 C126.52,36.28 125.84,36 125.04,36 L125.04,36 L102.96,36 C102.16,36 101.48,36.28 100.92,36.84 C100.36,37.4 100.08,38.08 100.08,38.88 L100.08,38.88 L100.08,162.96 C100.08,168.56 98.52,173.12 95.4,176.64 C92.28,180.16 88.24,181.92 83.28,181.92 C78.32,181.92 74.32,180.16 71.28,176.64 C68.24,173.12 66.72,168.56 66.72,162.96 L66.72,162.96 L66.72,144.72 C66.72,143.92 66.44,143.24 65.88,142.68 C65.32,142.12 64.64,141.84 63.84,141.84 L63.84,141.84 L41.76,141.84 C40.96,141.84 40.28,142.12 39.72,142.68 C39.16,143.24 38.88,143.92 38.88,144.72 L38.88,144.72 L38.88,162.48 C38.88,175.6 42.96,186.12 51.12,194.04 C59.28,201.96 70,205.92 83.28,205.92 Z M87.84,415.92 C101.6,415.92 112.72,411.76 121.2,403.44 C129.68,395.12 133.92,384.08 133.92,370.32 L133.92,370.32 L133.92,289.68 C133.92,275.92 129.68,264.88 121.2,256.56 C112.72,248.24 101.6,244.08 87.84,244.08 C74.08,244.08 63,248.24 54.6,256.56 C46.2,264.88 42,275.92 42,289.68 L42,289.68 L42,370.32 C42,384.08 46.2,395.12 54.6,403.44 C63,411.76 74.08,415.92 87.84,415.92 Z M87.84,391.92 C82.4,391.92 78.04,390.04 74.76,386.28 C71.48,382.52 69.84,377.6 69.84,371.52 L69.84,371.52 L69.84,288.48 C69.84,282.4 71.48,277.48 74.76,273.72 C78.04,269.96 82.4,268.08 87.84,268.08 C93.28,268.08 97.68,269.96 101.04,273.72 C104.4,277.48 106.08,282.4 106.08,288.48 L106.08,288.48 L106.08,371.52 C106.08,377.6 104.4,382.52 101.04,386.28 C97.68,390.04 93.28,391.92 87.84,391.92 Z M68.64,624 C69.44,624 70.12,623.72 70.68,623.16 C71.24,622.6 71.52,621.92 71.52,621.12 L71.52,621.12 L71.52,570 C71.52,569.68 71.68,569.2 72,568.56 L72,568.56 L81.6,552.48 C81.92,552.16 82.24,551.96 82.56,551.88 C82.88,551.8 83.12,552 83.28,552.48 L83.28,552.48 L111.6,621.84 C112.08,623.28 113.2,624 114.96,624 L114.96,624 L138.72,624 C140.32,624 141.12,623.36 141.12,622.08 C141.12,621.44 141.04,620.96 140.88,620.64 L140.88,620.64 L102,528.24 C102,527.92 102.08,527.44 102.24,526.8 L102.24,526.8 L138.24,459.36 C138.72,458.4 138.8,457.6 138.48,456.96 C138.16,456.32 137.44,456 136.32,456 L136.32,456 L112.56,456 C110.96,456 109.76,456.72 108.96,458.16 L108.96,458.16 L72.96,525.6 C72.64,526.08 72.32,526.28 72,526.2 C71.68,526.12 71.52,525.76 71.52,525.12 L71.52,525.12 L71.52,458.88 C71.52,458.08 71.24,457.4 70.68,456.84 C70.12,456.28 69.44,456 68.64,456 L68.64,456 L46.56,456 C45.76,456 45.08,456.28 44.52,456.84 C43.96,457.4 43.68,458.08 43.68,458.88 L43.68,458.88 L43.68,621.12 C43.68,621.92 43.96,622.6 44.52,623.16 C45.08,623.72 45.76,624 46.56,624 L46.56,624 L68.64,624 Z M129.6,834 C130.4,834 131.08,833.72 131.64,833.16 C132.2,832.6 132.48,831.92 132.48,831.12 L132.48,831.12 L132.48,812.88 C132.48,812.08 132.2,811.4 131.64,810.84 C131.08,810.28 130.4,810 129.6,810 L129.6,810 L77.76,810 C76.96,810 76.56,809.6 76.56,808.8 L76.56,808.8 L76.56,763.2 C76.56,762.4 76.96,762 77.76,762 L77.76,762 L108.48,762 C109.28,762 109.96,761.72 110.52,761.16 C111.08,760.6 111.36,759.92 111.36,759.12 L111.36,759.12 L111.36,740.64 C111.36,739.84 111.08,739.16 110.52,738.6 C109.96,738.04 109.28,737.76 108.48,737.76 L108.48,737.76 L77.76,737.76 C76.96,737.76 76.56,737.36 76.56,736.56 L76.56,736.56 L76.56,691.2 C76.56,690.4 76.96,690 77.76,690 L77.76,690 L129.6,690 C130.4,690 131.08,689.72 131.64,689.16 C132.2,688.6 132.48,687.92 132.48,687.12 L132.48,687.12 L132.48,668.88 C132.48,668.08 132.2,667.4 131.64,666.84 C131.08,666.28 130.4,666 129.6,666 L129.6,666 L51.6,666 C50.8,666 50.12,666.28 49.56,666.84 C49,667.4 48.72,668.08 48.72,668.88 L48.72,668.88 L48.72,831.12 C48.72,831.92 49,832.6 49.56,833.16 C50.12,833.72 50.8,834 51.6,834 L51.6,834 L129.6,834 Z M70.56,1044 C71.36,1044 72.04,1043.72 72.6,1043.16 C73.16,1042.6 73.44,1041.92 73.44,1041.12 L73.44,1041.12 L73.44,972.96 C73.44,972.16 73.84,971.76 74.64,971.76 L74.64,971.76 L87.36,971.76 C87.84,971.76 88.24,972.08 88.56,972.72 L88.56,972.72 L108.96,1041.6 C109.44,1043.2 110.48,1044 112.08,1044 L112.08,1044 L135.12,1044 C136.88,1044 137.76,1043.28 137.76,1041.84 C137.76,1041.36 137.68,1040.96 137.52,1040.64 L137.52,1040.64 L114,968.4 C113.84,967.6 114.08,967.12 114.72,966.96 C121.6,963.28 126.96,957.84 130.8,950.64 C134.64,943.44 136.56,934.88 136.56,924.96 C136.56,915.36 134.76,906.84 131.16,899.4 C127.56,891.96 122.52,886.2 116.04,882.12 C109.56,878.04 102.08,876 93.6,876 L93.6,876 L48.48,876 C47.68,876 47,876.28 46.44,876.84 C45.88,877.4 45.6,878.08 45.6,878.88 L45.6,878.88 L45.6,1041.12 C45.6,1041.92 45.88,1042.6 46.44,1043.16 C47,1043.72 47.68,1044 48.48,1044 L48.48,1044 L70.56,1044 Z M89.28,950.16 L74.64,950.16 C73.84,950.16 73.44,949.76 73.44,948.96 L73.44,948.96 L73.44,901.2 C73.44,900.4 73.84,900 74.64,900 L74.64,900 L89.28,900 C95.04,900 99.72,902.28 103.32,906.84 C106.92,911.4 108.72,917.52 108.72,925.2 C108.72,932.88 106.92,938.96 103.32,943.44 C99.72,947.92 95.04,950.16 89.28,950.16 L89.28,950.16 Z"/>
</svg>
