<svg xmlns="http://www.w3.org/2000/svg" width="100" height="475" version="1.1" viewBox="0 0 100 475">
  <g fill="none" fill-rule="evenodd" stroke="none" stroke-width="1">
    <path fill="#272727" fill-rule="nonzero" d="M40.9667969 93.3671875C47.249349 93.3671875 52.2949219 91.1373698 56.1035156 86.6777344 58.0566406 84.4316406 59.4401042 81.6809896 60.2539062 78.4257812 61.0677083 75.5611979 61.4746094 71.2154948 61.4746094 65.3886719L61.4746094 65.3886719 61.4746094 16.609375 50.0488281 16.609375 50.0488281 65.3886719C50.0488281 71.8014323 49.3652344 76.2936198 47.9980469 78.8652344 46.6959635 81.436849 44.3522135 82.7226562 40.9667969 82.7226562 38.5579427 82.7226562 35.9700521 81.7949219 33.203125 79.9394531L33.203125 79.9394531 27.6367188 89.65625C31.7708333 92.1302083 36.2141927 93.3671875 40.9667969 93.3671875zM50.1762695 109.004333C59.8710938 109.004333 68.18514 112.470968 75.1184082 119.404236 82.0810547 126.337504 85.5623779 134.666239 85.5623779 144.390442 85.5623779 154.173401 82.0663656 162.472758 75.0743408 169.288513 68.0529378 176.133647 59.5773112 179.556213 49.6474609 179.556213 40.8633626 179.556213 32.9753011 176.515564 25.9832764 170.434265 18.2861735 163.706645 14.4376221 154.893168 14.4376221 143.993835 14.4376221 134.416524 17.9483236 126.190613 24.9697266 119.316101 31.9617513 112.441589 40.3639323 109.004333 50.1762695 109.004333zM50.0423047 119.680979C43.2453516 119.680979 37.5060156 122.050042 32.8242969 126.788167 28.1425781 131.469885 25.8017187 137.251526 25.8017187 144.133088 25.8017187 151.353088 28.2271875 157.289846 33.078125 161.943362 37.9008594 166.596877 43.4709766 168.923635 49.7884766 168.923635 56.6418359 168.923635 62.4234766 166.554573 67.1333984 161.816448 71.8433203 157.021917 74.1982813 151.18387 74.1982813 144.302307 74.1982813 137.336135 71.8715234 131.498088 67.2180078 126.788167 62.5926953 122.050042 56.8674609 119.680979 50.0423047 119.680979z"/>
    <polygon fill="#272727" fill-rule="nonzero" points="37.28 272 37.28 240.799 39.624 238.455 66.772 272 82.007 272 47.729 230.74 81.812 196.609 66.626 196.609 37.28 226.688 37.28 196.609 25.903 196.609 25.903 272"/>
    <polygon fill="#272727" fill-rule="nonzero" points="70.801 366 70.801 355.307 40.576 355.307 40.576 330.111 69.922 330.111 69.922 319.418 40.576 319.418 40.576 301.303 70.801 301.303 70.801 290.609 29.199 290.609 29.199 366"/>
    <path fill="#272727" fill-rule="nonzero" d="M42.8466797,381.637146 L43.4530758,381.639485 C53.1000979,381.714323 60.0919762,383.585289 64.4287109,387.25238 C69.3115234,391.419047 71.7529297,396.920349 71.7529297,403.756287 C71.7529297,409.094828 70.2229818,413.684672 67.1630859,417.525818 C64.1031901,421.366964 60.0667318,423.824646 55.0537109,424.898865 L55.0537109,424.898865 L78.3935547,457.027771 L64.4775391,457.027771 L42.9443359,426.168396 L40.8935547,426.168396 L40.8935547,457.027771 L29.5166016,457.027771 L29.5166016,381.637146 L42.8466797,381.637146 Z M44.9462891,392.330505 L40.8935547,392.330505 L40.8935547,416.256287 L44.5068359,416.256287 C55.2815755,416.256287 60.6689453,412.138448 60.6689453,403.902771 C60.6689453,396.187927 55.4280599,392.330505 44.9462891,392.330505 L44.9462891,392.330505 Z"/>
  </g>
</svg>
