<svg xmlns="http://www.w3.org/2000/svg" width="100" height="100" version="1.1" viewBox="0 0 100 100">
  <path fill="#272727" fill-rule="nonzero" stroke="none" stroke-width="1" d="M44.6777344,90.2207031 C52.7832031,90.2207031 59.5052083,87.6490885 64.84375,82.5058594 C70.1822917,77.3626302 72.8515625,70.8196615 72.8515625,62.8769531 C72.8515625,55.1946615 70.4915365,48.8958333 65.7714844,43.9804688 C61.0839844,39.0325521 55.078125,36.5585938 47.7539062,36.5585938 C47.3307292,36.5585938 46.866862,36.5748698 46.3623047,36.6074219 C45.8577474,36.639974 45.328776,36.6888021 44.7753906,36.7539062 L44.7753906,36.7539062 L48.4863281,24.2539062 L71.7285156,24.2539062 L71.7285156,13.609375 L40.5761719,13.609375 L28.7109375,53.2578125 L32.4707031,53.2578125 C36.1816406,48.7981771 40.5924479,46.5683594 45.703125,46.5683594 C50.2929688,46.5683594 54.1178385,48.1471354 57.1777344,51.3046875 C60.2376302,54.3645833 61.7675781,58.3033854 61.7675781,63.1210938 C61.7675781,67.8085938 60.2213542,71.796224 57.1289062,75.0839844 C54.0364583,78.2740885 50.2115885,79.8691406 45.6542969,79.8691406 C42.171224,79.8691406 39.2252604,79.0553385 36.8164062,77.4277344 C34.4075521,75.7675781 32.014974,72.9192708 29.6386719,68.8828125 L29.6386719,68.8828125 L21.0449219,76.1582031 C26.8066406,85.5332031 34.6842448,90.2207031 44.6777344,90.2207031 Z"/>
</svg>
