<svg xmlns="http://www.w3.org/2000/svg" width="180" height="250" version="1.1" viewBox="0 0 180 250">
  <path fill="#272727" fill-rule="nonzero" stroke="none" stroke-width="1" d="M100.92,222.44 C101.72,222.44 102.4,222.16 102.96,221.6 C103.52,221.04 103.8,220.36 103.8,219.56 L103.8,219.56 L103.8,198.44 C103.8,197.8 104.12,197.4 104.76,197.24 C114.04,194.36 121.32,188.96 126.6,181.04 C131.88,173.12 134.52,163.64 134.52,152.6 L134.52,152.6 L134.52,74.36 C134.52,60.44 130.44,49.16 122.28,40.52 C114.12,31.88 103.32,27.56 89.88,27.56 C76.6,27.56 65.88,31.88 57.72,40.52 C49.56,49.16 45.48,60.44 45.48,74.36 L45.48,74.36 L45.48,152.6 C45.48,163.64 48.12,173.08 53.4,180.92 C58.68,188.76 65.88,194.2 75,197.24 C75.64,197.4 75.96,197.8 75.96,198.44 L75.96,198.44 L75.96,219.56 C75.96,220.36 76.24,221.04 76.8,221.6 C77.36,222.16 78.04,222.44 78.84,222.44 L78.84,222.44 L100.92,222.44 Z M89.88,175.4 C84.92,175.4 80.92,173.56 77.88,169.88 C74.84,166.2 73.32,161.4 73.32,155.48 L73.32,155.48 L73.32,71.48 C73.32,65.56 74.84,60.76 77.88,57.08 C80.92,53.4 84.92,51.56 89.88,51.56 C94.84,51.56 98.88,53.4 102,57.08 C105.12,60.76 106.68,65.56 106.68,71.48 L106.68,71.48 L106.68,155.48 C106.68,161.4 105.12,166.2 102,169.88 C98.88,173.56 94.84,175.4 89.88,175.4 Z"/>
</svg>
