<svg xmlns="http://www.w3.org/2000/svg" width="100" height="100" version="1.1" viewBox="0 0 100 100">
  <path fill="#272727" fill-rule="nonzero" stroke="none" stroke-width="1" d="M47.0703125,90.2207031 C54.1992188,90.2207031 60.0423177,88.0722656 64.5996094,83.7753906 C69.156901,79.4785156 71.4355469,73.9446615 71.4355469,67.1738281 C71.4355469,58.905599 68.3105469,52.9322917 62.0605469,49.2539062 C67.5292969,45.4127604 70.2636719,40.0416667 70.2636719,33.140625 C70.2636719,27.0208333 68.1803385,22.0240885 64.0136719,18.1503906 C59.8470052,14.2441406 54.4596354,12.2910156 47.8515625,12.2910156 C41.3085938,12.2910156 36.2141927,13.9430339 32.5683594,17.2470703 C28.922526,20.5511068 26.5136719,25.7513021 25.3417969,32.8476562 L25.3417969,32.8476562 L36.6699219,32.8476562 C37.483724,29.1367188 38.7207031,26.5 40.3808594,24.9375 C42.1061198,23.4075521 44.547526,22.6425781 47.7050781,22.6425781 C51.0904948,22.6425781 53.8411458,23.6679688 55.9570312,25.71875 C58.1054688,27.7369792 59.1796875,30.3574219 59.1796875,33.5800781 C59.1796875,37.7467448 57.6985677,40.7740885 54.7363281,42.6621094 C53.0761719,43.7363281 49.8372396,44.2734375 45.0195312,44.2734375 L45.0195312,44.2734375 L45.0195312,53.9902344 C49.4466146,53.9902344 52.718099,54.608724 54.8339844,55.8457031 C58.4472656,57.9941406 60.2539062,61.6074219 60.2539062,66.6855469 C60.2539062,70.5266927 59.0494792,73.7005208 56.640625,76.2070312 C54.2317708,78.6484375 51.188151,79.8691406 47.5097656,79.8691406 C43.8639323,79.8691406 40.9098307,78.9007161 38.6474609,76.9638672 C36.3850911,75.0270182 34.9609375,72.2356771 34.375,68.5898438 L34.375,68.5898438 L23.3886719,68.5898438 C23.8769531,73.5377604 25.0325521,77.4114583 26.8554688,80.2109375 C31.25,86.8841146 37.9882812,90.2207031 47.0703125,90.2207031 Z"/>
</svg>
