<svg xmlns="http://www.w3.org/2000/svg" width="100" height="100" version="1.1" viewBox="0 0 100 100">
  <path fill="#272727" fill-rule="nonzero" stroke="none" stroke-width="1" d="M50.1953125,90.2207031 C57.0963542,90.2207031 63.0045573,87.7630208 67.9199219,82.8476562 C72.8678385,77.8997396 75.3417969,71.9752604 75.3417969,65.0742188 C75.3417969,58.5638021 73.1282552,52.9973958 68.7011719,48.375 C64.2415365,43.6875 58.9518229,41.34375 52.8320312,41.34375 C52.4414062,41.34375 51.9042969,41.3763021 51.2207031,41.4414062 C50.5371094,41.5065104 49.7070312,41.6041667 48.7304688,41.734375 L48.7304688,41.734375 L66.7480469,17.2226562 L58.3984375,10.9726562 L32.03125,46.7636719 C27.1158854,53.436849 24.6582031,59.7519531 24.6582031,65.7089844 C24.6582031,72.3496094 27.1809896,78.0950521 32.2265625,82.9453125 C37.3697917,87.7955729 43.359375,90.2207031 50.1953125,90.2207031 Z M50.0488281,79.8691406 C46.0449219,79.8691406 42.6595052,78.4856771 39.8925781,75.71875 C37.125651,72.9518229 35.7421875,69.5989583 35.7421875,65.6601562 C35.7421875,61.7213542 37.125651,58.3684896 39.8925781,55.6015625 C42.6595052,52.8346354 46.0286458,51.4511719 50,51.4511719 C53.9388021,51.4511719 57.3079427,52.8509115 60.1074219,55.6503906 C62.874349,58.4173177 64.2578125,61.8027344 64.2578125,65.8066406 C64.2578125,69.6152344 62.8580729,72.9192708 60.0585938,75.71875 C57.2916667,78.4856771 53.9550781,79.8691406 50.0488281,79.8691406 Z"/>
</svg>
