<svg xmlns="http://www.w3.org/2000/svg" width="100" height="100" version="1.1" viewBox="0 0 100 100">
  <path fill="#272727" fill-rule="nonzero" stroke="none" stroke-width="1" d="M27.7607422,89 L27.7607422,13.609375 L9.59667969,13.609375 L3.34667969,24.2539062 L16.3837891,24.2539062 L16.3837891,89 L27.7607422,89 Z M67.9052734,90.2207031 C75.0016276,90.2207031 81.0563151,86.9817708 86.0693359,80.5039062 C91.6682943,73.3424479 94.4677734,63.609375 94.4677734,51.3046875 C94.4677734,38.9674479 91.6682943,29.218099 86.0693359,22.0566406 C81.0563151,15.578776 74.9853516,12.3398438 67.8564453,12.3398438 C60.7275391,12.3398438 54.6565755,15.578776 49.6435547,22.0566406 C44.0445964,29.218099 41.2451172,38.8046875 41.2451172,50.8164062 C41.2451172,63.4466146 44.0445964,73.3424479 49.6435547,80.5039062 C54.7216797,86.9817708 60.8089193,90.2207031 67.9052734,90.2207031 Z M67.8564453,79.8691406 C63.3642578,79.8691406 59.6695964,77.1510417 56.7724609,71.7148438 C53.8753255,66.1809896 52.4267578,59.2311198 52.4267578,50.8652344 C52.4267578,42.8248698 53.8916016,36.1191406 56.8212891,30.7480469 C59.7509766,25.344401 63.429362,22.6425781 67.8564453,22.6425781 C72.3160807,22.6425781 76.0107422,25.344401 78.9404297,30.7480469 C81.8701172,36.1842448 83.3349609,43.0201823 83.3349609,51.2558594 C83.3349609,59.4915365 81.8701172,66.3111979 78.9404297,71.7148438 C76.0107422,77.1510417 72.3160807,79.8691406 67.8564453,79.8691406 Z"/>
</svg>
