<svg xmlns="http://www.w3.org/2000/svg" width="180" height="250" version="1.1" viewBox="0 0 180 250">
  <path fill="#272727" fill-rule="nonzero" stroke="none" stroke-width="1" d="M63.1835294,209 C65.1035294,209 66.1435294,208.12 66.3035294,206.36 L66.3035294,206.36 L70.8635294,181.16 C70.8635294,180.36 71.3435294,179.96 72.3035294,179.96 L72.3035294,179.96 L107.343529,179.96 C108.303529,179.96 108.783529,180.36 108.783529,181.16 L108.783529,181.16 L113.343529,206.36 C113.503529,208.12 114.543529,209 116.463529,209 L116.463529,209 L138.783529,209 C140.543529,209 141.423529,208.28 141.423529,206.84 L141.423529,206.84 L141.423529,205.88 L105.903529,43.64 C105.583529,41.88 104.543529,41 102.783529,41 L102.783529,41 L77.3435294,41 C75.5835294,41 74.5435294,41.88 74.2235294,43.64 L74.2235294,43.64 L38.7035294,205.88 C38.2235294,207.96 39.1035294,209 41.3435294,209 L41.3435294,209 L63.1835294,209 Z M103.023529,158.12 L76.3835294,158.12 C75.4235294,158.12 75.0235294,157.72 75.1835294,156.92 L75.1835294,156.92 L88.8635294,81.08 C89.0235294,80.6 89.2635294,80.36 89.5835294,80.36 C89.9035294,80.36 90.1435294,80.6 90.3035294,81.08 L90.3035294,81.08 L104.223529,156.92 C104.383529,157.72 103.983529,158.12 103.023529,158.12 L103.023529,158.12 Z"/>
</svg>
