<svg xmlns="http://www.w3.org/2000/svg" width="180" height="250" version="1.1" viewBox="0 0 180 250">
  <path fill="#272727" fill-rule="nonzero" stroke="none" stroke-width="1" d="M90.24,210.92 C102.72,210.92 112.76,207.6 120.36,200.96 C127.96,194.32 132.16,184.92 132.96,172.76 C133.28,166.04 133.44,160.84 133.44,157.16 C133.44,151.24 133.04,145.64 132.24,140.36 C131.12,128.68 127.12,119.32 120.24,112.28 C113.36,105.24 104.4,101.72 93.36,101.72 C86.48,101.72 80.72,103.88 76.08,108.2 C75.76,108.52 75.44,108.6 75.12,108.44 C74.8,108.28 74.64,107.96 74.64,107.48 L74.64,107.48 L74.64,82.76 C74.64,77.16 76.04,72.6 78.84,69.08 C81.64,65.56 85.28,63.8 89.76,63.8 C93.44,63.8 96.6,65.6 99.24,69.2 C101.88,72.8 103.2,77.32 103.2,82.76 L103.2,82.76 L103.2,87.32 C103.2,88.12 103.48,88.8 104.04,89.36 C104.6,89.92 105.28,90.2 106.08,90.2 L106.08,90.2 L128.16,90.2 C128.96,90.2 129.64,89.92 130.2,89.36 C130.76,88.8 131.04,88.12 131.04,87.32 L131.04,87.32 L131.04,81.32 C131.04,68.52 127.2,58.28 119.52,50.6 C111.84,42.92 101.92,39.08 89.76,39.08 C76.8,39.08 66.36,42.88 58.44,50.48 C50.52,58.08 46.56,68.36 46.56,81.32 L46.56,81.32 L46.8,159.32 C46.8,165.08 47.28,170.12 48.24,174.44 C49.68,186.44 54.08,195.52 61.44,201.68 C68.8,207.84 78.4,210.92 90.24,210.92 Z M90,187.16 C86,187.16 82.76,185.8 80.28,183.08 C77.8,180.36 76.16,176.44 75.36,171.32 C74.88,165.24 74.64,159.88 74.64,155.24 C74.64,149.96 74.96,144.52 75.6,138.92 C76.4,134.12 78.04,130.48 80.52,128 C83,125.52 86.16,124.28 90,124.28 C97.52,124.28 102.24,128.92 104.16,138.2 C104.96,145.4 105.36,151.08 105.36,155.24 C105.36,159.72 105.12,164.84 104.64,170.6 C103.84,175.88 102.2,179.96 99.72,182.84 C97.24,185.72 94,187.16 90,187.16 Z"/>
</svg>
