<svg xmlns="http://www.w3.org/2000/svg" width="100" height="425" version="1.1" viewBox="0 0 100 425">
  <g fill="none" fill-rule="evenodd" stroke="none" stroke-width="1">
    <path fill="#272727" fill-rule="nonzero" d="M41.8701172 78.712326C47.5244141 78.712326 52.0654297 76.7054901 55.4931641 72.6918182 57.2509766 70.6703339 58.4960938 68.1947479 59.2285156 65.2650604 59.9609375 62.6869354 60.3271484 58.7758026 60.3271484 53.531662L60.3271484 53.531662 60.3271484 9.6302948 50.0439453 9.6302948 50.0439453 53.531662C50.0439453 59.3031464 49.4287109 63.3461151 48.1982422 65.6605682 47.0263672 67.9750214 44.9169922 69.1322479 41.8701172 69.1322479 39.7021484 69.1322479 37.3730469 68.297287 34.8828125 66.6273651L34.8828125 66.6273651 29.8730469 75.3724823C33.59375 77.5990448 37.5927734 78.712326 41.8701172 78.712326zM50.1586426 92.7857574C58.8839844 92.7857574 66.366626 95.9057281 72.6065674 102.14567 78.8729492 108.385611 82.0061401 115.881473 82.0061401 124.633255 82.0061401 133.437918 78.859729 140.907339 72.5669067 147.041519 66.247644 153.202139 58.6195801 156.282449 49.6827148 156.282449 41.7770264 156.282449 34.677771 153.545865 28.3849487 148.072696 21.4575562 142.017838 17.9938599 134.085709 17.9938599 124.276309 17.9938599 115.656729 21.1534912 108.253409 27.4727539 102.066348 33.7655762 95.8792877 41.3275391 92.7857574 50.1586426 92.7857574zM50.0380742 102.394738C43.9208164 102.394738 38.7554141 104.526895 34.5418672 108.791207 30.3283203 113.004754 28.2215469 118.208231 28.2215469 124.401637 28.2215469 130.899637 30.4044688 136.242719 34.7703125 140.430883 39.1107734 144.619047 44.1238789 146.713129 49.8096289 146.713129 55.9776523 146.713129 61.1811289 144.580973 65.4200586 140.31666 69.6589883 136.001582 71.7784531 130.74734 71.7784531 124.553934 71.7784531 118.284379 69.6843711 113.030137 65.496207 108.791207 61.3334258 104.526895 56.1807148 102.394738 50.0380742 102.394738z"/>
    <polygon fill="#272727" fill-rule="nonzero" points="38.552 239.482 38.552 211.401 40.662 209.291 65.095 239.482 78.806 239.482 47.957 202.348 78.63 171.63 64.963 171.63 38.552 198.701 38.552 171.63 28.313 171.63 28.313 239.482"/>
    <polygon fill="#272727" fill-rule="nonzero" points="68.721 324.082 68.721 314.458 41.519 314.458 41.519 291.782 67.93 291.782 67.93 282.158 41.519 282.158 41.519 265.854 68.721 265.854 68.721 256.23 31.279 256.23 31.279 324.082"/>
    <path fill="#272727" fill-rule="nonzero" d="M43.5620117,338.155289 L44.1431449,338.157677 C52.8071834,338.229327 59.0880817,339.913101 62.9858398,343.209 C67.3803711,346.959 69.5776367,351.910172 69.5776367,358.062515 C69.5776367,362.867203 68.2006836,366.998062 65.4467773,370.455093 C62.6928711,373.912125 59.0600586,376.124039 54.5483398,377.090836 L54.5483398,377.090836 L75.5541992,406.006851 L63.0297852,406.006851 L43.6499023,378.233414 L41.8041992,378.233414 L41.8041992,406.006851 L31.5649414,406.006851 L31.5649414,338.155289 L43.5620117,338.155289 Z M45.4516602,347.779312 L41.8041992,347.779312 L41.8041992,369.312515 L45.0561523,369.312515 C54.753418,369.312515 59.6020508,365.606461 59.6020508,358.194351 C59.6020508,351.250992 54.8852539,347.779312 45.4516602,347.779312 L45.4516602,347.779312 Z"/>
  </g>
</svg>
