<svg xmlns="http://www.w3.org/2000/svg" width="100" height="100" version="1.1" viewBox="0 0 100 100">
  <path fill="#272727" fill-rule="nonzero" stroke="none" stroke-width="1" d="M72.265625,89 L72.265625,78.3066406 L44.1894531,78.3066406 L55.9082031,64.4394531 C59.1634115,60.5983073 61.8570964,57.2698568 63.9892578,54.4541016 C66.1214193,51.6383464 67.7408854,49.2050781 68.8476562,47.1542969 C71.0286458,43.2154948 72.1191406,39.1953125 72.1191406,35.09375 C72.1191406,28.6484375 69.7753906,23.2447917 65.0878906,18.8828125 C60.4329427,14.5208333 54.671224,12.3398438 47.8027344,12.3398438 C33.577474,12.3398438 25.5533854,20.2825521 23.7304688,36.1679688 L23.7304688,36.1679688 L35.0585938,36.1679688 C36.1653646,27.1510417 40.5273438,22.6425781 48.1445312,22.6425781 C51.7903646,22.6425781 54.8502604,23.8307292 57.3242188,26.2070312 C59.7981771,28.5833333 61.0351562,31.5292969 61.0351562,35.0449219 C61.0351562,37.4863281 60.1074219,40.2369792 58.2519531,43.296875 C57.3404948,44.859375 56.0139974,46.796224 54.2724609,49.1074219 C52.5309245,51.4186198 50.374349,54.1529948 47.8027344,57.3105469 L47.8027344,57.3105469 L21.6308594,89 L72.265625,89 Z"/>
</svg>
