<svg xmlns="http://www.w3.org/2000/svg" width="100" height="100" version="1.1" viewBox="0 0 100 100">
  <path fill="#272727" fill-rule="nonzero" stroke="none" stroke-width="1" d="M41.6015625,91.5878906 L67.9199219,55.8457031 C72.8678385,49.0423177 75.3417969,42.7109375 75.3417969,36.8515625 C75.3417969,30.2434896 72.8027344,24.5143229 67.7246094,19.6640625 C62.6464844,14.78125 56.6731771,12.3398438 49.8046875,12.3398438 C42.9036458,12.3398438 36.9791667,14.8138021 32.03125,19.7617188 C27.1158854,24.6770833 24.6582031,30.6015625 24.6582031,37.5351562 C24.6582031,44.0455729 26.8717448,49.6119792 31.2988281,54.234375 C35.7584635,58.8893229 41.031901,61.2167969 47.1191406,61.2167969 C47.5423177,61.2167969 48.0957031,61.1842448 48.7792969,61.1191406 C49.4628906,61.0540365 50.2929688,60.9563802 51.2695312,60.8261719 L51.2695312,60.8261719 L33.2519531,85.3867188 L41.6015625,91.5878906 Z M50,51.1582031 C46.0611979,51.1582031 42.6920573,49.7584635 39.8925781,46.9589844 C37.125651,44.1920573 35.7421875,40.7740885 35.7421875,36.7050781 C35.7421875,32.8964844 37.1419271,29.5924479 39.9414062,26.7929688 C42.7083333,24.0260417 46.0449219,22.6425781 49.9511719,22.6425781 C53.922526,22.6425781 57.2916667,24.0260417 60.0585938,26.7929688 C62.8580729,29.5924479 64.2578125,32.9615885 64.2578125,36.9003906 C64.2578125,40.8391927 62.8580729,44.2083333 60.0585938,47.0078125 C57.2916667,49.7747396 53.9388021,51.1582031 50,51.1582031 Z"/>
</svg>
