<svg xmlns="http://www.w3.org/2000/svg" width="100" height="100" version="1.1" viewBox="0 0 100 100">
  <path fill="#272727" fill-rule="nonzero" stroke="none" stroke-width="1" d="M50.390625,90.2207031 C57.1940104,90.2207031 62.7766927,88.0885417 67.1386719,83.8242188 C71.500651,79.5598958 73.6816406,74.0911458 73.6816406,67.4179688 C73.6816406,63.5117188 72.8027344,59.9960937 71.0449219,56.8710938 C69.3196615,53.7460938 66.9433594,51.3697917 63.9160156,49.7421875 C69.4173177,45.640625 72.1679688,40.3509115 72.1679688,33.8730469 C72.1679688,27.688151 70.0846354,22.5611979 65.9179688,18.4921875 C61.7513021,14.390625 56.5429688,12.3398438 50.2929688,12.3398438 C44.0104167,12.3398438 38.7532552,14.390625 34.5214844,18.4921875 C30.3222656,22.59375 28.2226562,27.7044271 28.2226562,33.8242188 C28.2226562,40.5625 30.9895833,45.8847656 36.5234375,49.7910156 C29.7200521,53.1764323 26.3183594,59.1009115 26.3183594,67.5644531 C26.3183594,74.0748698 28.5970052,79.4785156 33.1542969,83.7753906 C37.6790365,88.0722656 43.4244792,90.2207031 50.390625,90.2207031 Z M50.1953125,45.2011719 C47.0703125,45.2011719 44.4010417,44.094401 42.1875,41.8808594 C40.0065104,39.6998698 38.9160156,36.9980469 38.9160156,33.7753906 C38.9160156,30.780599 40.0227865,28.1764323 42.2363281,25.9628906 C44.4498698,23.749349 47.1028646,22.6425781 50.1953125,22.6425781 C53.2877604,22.6425781 55.9407552,23.749349 58.1542969,25.9628906 C60.3678385,28.1764323 61.4746094,30.8294271 61.4746094,33.921875 C61.4746094,37.0143229 60.3678385,39.6673177 58.1542969,41.8808594 C55.9407552,44.094401 53.2877604,45.2011719 50.1953125,45.2011719 Z M50,79.8691406 C46.5169271,79.8691406 43.5546875,78.6321615 41.1132812,76.1582031 C38.7044271,73.6516927 37.5,70.656901 37.5,67.1738281 C37.5,63.7884115 38.7207031,60.875 41.1621094,58.4335938 C43.6360677,55.9921875 46.5820312,54.7714844 50,54.7714844 C53.4505208,54.7714844 56.3964844,55.9921875 58.8378906,58.4335938 C61.2792969,60.875 62.5,63.8372396 62.5,67.3203125 C62.5,70.7708333 61.2792969,73.7330729 58.8378906,76.2070312 C56.3964844,78.6484375 53.4505208,79.8691406 50,79.8691406 Z"/>
</svg>
