<svg xmlns="http://www.w3.org/2000/svg" width="180" height="250" version="1.1" viewBox="0 0 180 250">
  <path fill="#272727" fill-rule="nonzero" stroke="none" stroke-width="1" d="M126.96,209 C127.76,209 128.44,208.72 129,208.16 C129.56,207.6 129.84,206.92 129.84,206.12 L129.84,206.12 L129.84,166.52 C129.84,165.72 130.24,165.32 131.04,165.32 L131.04,165.32 L138.24,165.32 C139.04,165.32 139.72,165.04 140.28,164.48 C140.84,163.92 141.12,163.24 141.12,162.44 L141.12,162.44 L141.12,143 C141.12,142.2 140.84,141.52 140.28,140.96 C139.72,140.4 139.04,140.12 138.24,140.12 L138.24,140.12 L131.04,140.12 C130.24,140.12 129.84,139.72 129.84,138.92 L129.84,138.92 L129.84,110.12 C129.84,109.32 129.56,108.64 129,108.08 C128.44,107.52 127.76,107.24 126.96,107.24 L126.96,107.24 L104.88,107.24 C104.08,107.24 103.4,107.52 102.84,108.08 C102.28,108.64 102,109.32 102,110.12 L102,110.12 L102,138.92 C102,139.72 101.6,140.12 100.8,140.12 L100.8,140.12 L72.48,140.12 C71.68,140.12 71.36,139.64 71.52,138.68 L71.52,138.68 L102.24,44.36 C102.56,43.24 102.48,42.4 102,41.84 C101.52,41.28 100.8,41 99.84,41 L99.84,41 L75.84,41 C74.24,41 73.2,41.8 72.72,43.4 L72.72,43.4 L39.36,143.24 C39.04,144.2 38.88,145.4 38.88,146.84 L38.88,146.84 L38.88,162.44 C38.88,163.24 39.16,163.92 39.72,164.48 C40.28,165.04 40.96,165.32 41.76,165.32 L41.76,165.32 L100.8,165.32 C101.6,165.32 102,165.72 102,166.52 L102,166.52 L102,206.12 C102,206.92 102.28,207.6 102.84,208.16 C103.4,208.72 104.08,209 104.88,209 L104.88,209 L126.96,209 Z"/>
</svg>
