<svg xmlns="http://www.w3.org/2000/svg" width="180" height="250" version="1.1" viewBox="0 0 180 250">
  <path fill="#272727" fill-rule="nonzero" stroke="none" stroke-width="1" d="M58.8,209 C59.6,209 60.28,208.72 60.84,208.16 C61.4,207.6 61.68,206.92 61.68,206.12 L61.68,206.12 L61.68,43.88 C61.68,43.08 61.4,42.4 60.84,41.84 C60.28,41.28 59.6,41 58.8,41 L58.8,41 L35.76,41 C34.48,41 33.28,41.24 32.16,41.72 L32.16,41.72 L10.8,51.32 C9.52,51.96 8.88,53.08 8.88,54.68 L8.88,54.68 L9.6,70.76 C9.6,72.52 10.48,73.4 12.24,73.4 L12.24,73.4 L12.96,73.4 L32.64,69.56 C32.96,69.4 33.24,69.48 33.48,69.8 C33.72,70.12 33.84,70.44 33.84,70.76 L33.84,70.76 L33.84,206.12 C33.84,206.92 34.12,207.6 34.68,208.16 C35.24,208.72 35.92,209 36.72,209 L36.72,209 L58.8,209 Z M126,211.64 C139.6,211.64 150.52,207.36 158.76,198.8 C167,190.24 171.12,179 171.12,165.08 L171.12,165.08 L171.12,84.92 C171.12,71 167,59.76 158.76,51.2 C150.52,42.64 139.6,38.36 126,38.36 C112.56,38.36 101.76,42.64 93.6,51.2 C85.44,59.76 81.36,71 81.36,84.92 L81.36,84.92 L81.36,165.08 C81.36,179 85.44,190.24 93.6,198.8 C101.76,207.36 112.56,211.64 126,211.64 Z M126,187.4 C120.88,187.4 116.8,185.52 113.76,181.76 C110.72,178 109.2,173 109.2,166.76 L109.2,166.76 L109.2,83.24 C109.2,77 110.72,72 113.76,68.24 C116.8,64.48 120.88,62.6 126,62.6 C131.28,62.6 135.48,64.48 138.6,68.24 C141.72,72 143.28,77 143.28,83.24 L143.28,83.24 L143.28,166.76 C143.28,173 141.72,178 138.6,181.76 C135.48,185.52 131.28,187.4 126,187.4 Z"/>
</svg>
