<svg xmlns="http://www.w3.org/2000/svg" width="450" height="113" version="1.1" viewBox="0 0 450 113">
  <path fill="#000" fill-rule="nonzero" stroke="none" stroke-width="1" d="M450,0.25 L450,112.75 L0,112.75 L0,0.25 L450,0.25 Z M200.120625,22.75 C198.036095,22.75 196.34625,24.4398452 196.34625,26.524375 L196.34625,26.524375 L196.34625,86.475625 C196.34625,88.5601548 198.036095,90.25 200.120625,90.25 C202.205155,90.25 203.895,88.5601548 203.895,86.475625 L203.895,86.475625 L203.895,26.524375 C203.895,24.4398452 202.205155,22.75 200.120625,22.75 Z M214.104375,22.75 C212.019845,22.75 210.33,24.4398452 210.33,26.524375 L210.33,26.524375 L210.33,86.475625 C210.33,88.5601548 212.019845,90.25 214.104375,90.25 C216.188905,90.25 217.87875,88.5601548 217.87875,86.475625 L217.87875,86.475625 L217.87875,26.524375 C217.87875,24.4398452 216.188905,22.75 214.104375,22.75 Z M269.994375,22.75 C267.909845,22.75 266.22,24.4398452 266.22,26.524375 L266.22,26.524375 L266.22,86.475625 C266.22,88.5601548 267.909845,90.25 269.994375,90.25 C272.078905,90.25 273.76875,88.5601548 273.76875,86.475625 L273.76875,86.475625 L273.76875,26.524375 C273.76875,24.4398452 272.078905,22.75 269.994375,22.75 Z M339.879375,22.75 C337.794845,22.75 336.105,24.4398452 336.105,26.524375 L336.105,26.524375 L336.105,86.475625 C336.105,88.5601548 337.794845,90.25 339.879375,90.25 C341.963905,90.25 343.65375,88.5601548 343.65375,86.475625 L343.65375,86.475625 L343.65375,26.524375 C343.65375,24.4398452 341.963905,22.75 339.879375,22.75 Z M56.25,22.75 C37.6103897,22.75 22.5,37.8603897 22.5,56.5 C22.5,75.1396103 37.6103897,90.25 56.25,90.25 C74.8896103,90.25 90,75.1396103 90,56.5 C90,37.8603897 74.8896103,22.75 56.25,22.75 L56.25,22.75 Z M228.076875,26.6875 C225.992345,26.6875 224.3025,28.3773452 224.3025,30.461875 L224.3025,30.461875 L224.3025,82.538125 C224.3025,84.6226548 225.992345,86.3125 228.076875,86.3125 C230.161405,86.3125 231.85125,84.6226548 231.85125,82.538125 L231.85125,82.538125 L231.85125,30.461875 C231.85125,28.3773452 230.161405,26.6875 228.076875,26.6875 Z M172.175625,30.625 C170.091095,30.625 168.40125,32.3148452 168.40125,34.399375 L168.40125,34.399375 L168.40125,78.600625 C168.40125,80.6851548 170.091095,82.375 172.175625,82.375 C174.260155,82.375 175.95,80.6851548 175.95,78.600625 L175.95,78.600625 L175.95,34.399375 C175.95,32.3148452 174.260155,30.625 172.175625,30.625 Z M311.923125,34.5625 C309.838595,34.5625 308.14875,36.2523452 308.14875,38.336875 L308.14875,38.336875 L308.14875,74.663125 C308.14875,76.7476548 309.838595,78.4375 311.923125,78.4375 C314.007655,78.4375 315.6975,76.7476548 315.6975,74.663125 L315.6975,74.663125 L315.6975,38.336875 C315.6975,36.2523452 314.007655,34.5625 311.923125,34.5625 Z M256.021875,38.5 C253.937345,38.5 252.2475,40.1898452 252.2475,42.274375 L252.2475,42.274375 L252.2475,70.725625 C252.2475,72.8101548 253.937345,74.5 256.021875,74.5 C258.106405,74.5 259.79625,72.8101548 259.79625,70.725625 L259.79625,70.725625 L259.79625,42.274375 C259.79625,40.1898452 258.106405,38.5 256.021875,38.5 Z M353.851875,38.5 C351.767345,38.5 350.0775,40.1898452 350.0775,42.274375 L350.0775,42.274375 L350.0775,70.725625 C350.0775,72.8101548 351.767345,74.5 353.851875,74.5 C355.936405,74.5 357.62625,72.8101548 357.62625,70.725625 L357.62625,70.725625 L357.62625,42.274375 C357.62625,40.1898452 355.936405,38.5 353.851875,38.5 Z M367.824375,38.5 C365.739845,38.5 364.05,40.1898452 364.05,42.274375 L364.05,42.274375 L364.05,70.725625 C364.05,72.8101548 365.739845,74.5 367.824375,74.5 C369.908905,74.5 371.59875,72.8101548 371.59875,70.725625 L371.59875,70.725625 L371.59875,42.274375 C371.59875,40.1898452 369.908905,38.5 367.824375,38.5 Z M381.796875,38.5 C379.712345,38.5 378.0225,40.1898452 378.0225,42.274375 L378.0225,42.274375 L378.0225,70.725625 C378.0225,72.8101548 379.712345,74.5 381.796875,74.5 C383.881405,74.5 385.57125,72.8101548 385.57125,70.725625 L385.57125,70.725625 L385.57125,42.274375 C385.57125,40.1898452 383.881405,38.5 381.796875,38.5 Z M395.769375,38.5 C393.684845,38.5 391.995,40.1898452 391.995,42.274375 L391.995,42.274375 L391.995,70.725625 C391.995,72.8101548 393.684845,74.5 395.769375,74.5 C397.853905,74.5 399.54375,72.8101548 399.54375,70.725625 L399.54375,70.725625 L399.54375,42.274375 C399.54375,40.1898452 397.853905,38.5 395.769375,38.5 Z M409.753125,38.5 C407.668595,38.5 405.97875,40.1898452 405.97875,42.274375 L405.97875,42.274375 L405.97875,70.725625 C405.97875,72.8101548 407.668595,74.5 409.753125,74.5 C411.837655,74.5 413.5275,72.8101548 413.5275,70.725625 L413.5275,70.725625 L413.5275,42.274375 C413.5275,40.1898452 411.837655,38.5 409.753125,38.5 Z M50.9625,63.1374897 C55.3797704,63.1343992 59.7694845,63.833108 63.9675,65.2075 C66.2899404,65.9879119 68.522558,67.0137092 70.6275,68.2675 C70.8140008,68.3733613 70.9942951,68.4898014 71.1675,68.61625 C72.0171083,69.2580779 72.2452575,70.4376579 71.69625,71.35 L71.69625,71.35 L71.7075,71.395 C71.1676836,72.2925171 70.0450057,72.6490757 69.08625,72.2275 C68.8928804,72.1375182 68.7050472,72.0360883 68.52375,71.92375 C64.9785714,69.8375271 61.0625856,68.458336 56.9925,67.8625 C54.4803737,67.4813443 51.9374861,67.3419564 49.39875,67.44625 C46.119171,67.5861511 42.8586791,68.0191264 39.65625,68.74 C39.3318094,68.8191302 39.0000319,68.8643726 38.66625,68.875 C37.662078,68.8929488 36.7981919,68.1682443 36.64125,67.17625 C36.4326635,66.1963056 36.9598173,65.2084859 37.89,64.83625 C38.087256,64.7597938 38.2904328,64.6995933 38.4975,64.65625 C41.1206538,64.0550728 43.7818691,63.6340896 46.4625,63.39625 C47.95875,63.2725 49.46625,63.21625 50.9625,63.1374897 Z M283.978125,42.4375 C281.893595,42.4375 280.20375,44.1273452 280.20375,46.211875 L280.20375,46.211875 L280.20375,66.788125 C280.20375,68.8726548 281.893595,70.5625 283.978125,70.5625 C286.062655,70.5625 287.7525,68.8726548 287.7525,66.788125 L287.7525,66.788125 L287.7525,46.211875 C287.7525,44.1273452 286.062655,42.4375 283.978125,42.4375 Z M325.895625,46.375 C323.811095,46.375 322.12125,48.0648452 322.12125,50.149375 L322.12125,50.149375 L322.12125,62.850625 C322.12125,64.9351548 323.811095,66.625 325.895625,66.625 C327.980155,66.625 329.67,64.9351548 329.67,62.850625 L329.67,62.850625 L329.67,50.149375 C329.67,48.0648452 327.980155,46.375 325.895625,46.375 Z M297.950625,46.375 C295.866095,46.375 294.17625,48.0648452 294.17625,50.149375 L294.17625,50.149375 L294.17625,62.850625 C294.17625,64.9351548 295.866095,66.625 297.950625,66.625 C300.035155,66.625 301.725,64.9351548 301.725,62.850625 L301.725,62.850625 L301.725,50.149375 C301.725,48.0648452 300.035155,46.375 297.950625,46.375 Z M186.148125,46.375 C184.063595,46.375 182.37375,48.0648452 182.37375,50.149375 L182.37375,50.149375 L182.37375,62.850625 C182.37375,64.9351548 184.063595,66.625 186.148125,66.625 C188.232655,66.625 189.9225,64.9351548 189.9225,62.850625 L189.9225,62.850625 L189.9225,50.149375 C189.9225,48.0648452 188.232655,46.375 186.148125,46.375 Z M158.203125,46.375 C156.118595,46.375 154.42875,48.0648452 154.42875,50.149375 L154.42875,50.149375 L154.42875,62.850625 C154.42875,64.9351548 156.118595,66.625 158.203125,66.625 C160.287655,66.625 161.9775,64.9351548 161.9775,62.850625 L161.9775,62.850625 L161.9775,50.149375 C161.9775,48.0648452 160.287655,46.375 158.203125,46.375 Z M48.6,52.19125 C54.5824534,51.9483315 60.5610143,52.7594356 66.2625,54.5875 C69.1615708,55.5068312 71.9469046,56.7523057 74.565,58.3 L74.565,58.3 L74.95875,58.53625 C76.1824933,59.2919331 76.5732176,60.8898954 75.83625,62.125 C75.0695627,63.3380776 73.4699541,63.7091467 72.2475,62.9575 L72.2475,62.9575 L70.79,62.1375 L70.05375,61.7425 C66.6502267,60.0421669 63.0209656,58.8374644 59.27625,58.165 C56.3420454,57.6134902 53.3630845,57.334801 50.3775,57.3325 C46.4267772,57.3230552 42.4948289,57.8761038 38.7,58.975 C38.0927441,59.1931291 37.4285059,59.1931291 36.82125,58.975 C35.8207405,58.5651765 35.1764919,57.5809078 35.20125,56.5 C35.2087129,55.3968628 35.9266997,54.4243997 36.97875,54.0925 C38.03625,53.76625 39.16125,53.47375 40.28625,53.22625 C43.0205636,52.6309264 45.8031833,52.2845109 48.6,52.19125 Z M116.274375,50.3125 C114.189845,50.3125 112.5,52.0023452 112.5,54.086875 L112.5,54.086875 L112.5,58.913125 C112.5,60.9976548 114.189845,62.6875 116.274375,62.6875 C118.358905,62.6875 120.04875,60.9976548 120.04875,58.913125 L120.04875,58.913125 L120.04875,54.086875 C120.04875,52.0023452 118.358905,50.3125 116.274375,50.3125 Z M130.246875,50.3125 C128.162345,50.3125 126.4725,52.0023452 126.4725,54.086875 L126.4725,54.086875 L126.4725,58.913125 C126.4725,60.9976548 128.162345,62.6875 130.246875,62.6875 C132.331405,62.6875 134.02125,60.9976548 134.02125,58.913125 L134.02125,58.913125 L134.02125,54.086875 C134.02125,52.0023452 132.331405,50.3125 130.246875,50.3125 Z M144.219375,50.3125 C142.134845,50.3125 140.445,52.0023452 140.445,54.086875 L140.445,54.086875 L140.445,58.913125 C140.445,60.9976548 142.134845,62.6875 144.219375,62.6875 C146.303905,62.6875 147.99375,60.9976548 147.99375,58.913125 L147.99375,58.913125 L147.99375,54.086875 C147.99375,52.0023452 146.303905,50.3125 144.219375,50.3125 Z M242.049375,50.3125 C239.964845,50.3125 238.275,52.0023452 238.275,54.086875 L238.275,54.086875 L238.275,58.913125 C238.275,60.9976548 239.964845,62.6875 242.049375,62.6875 C244.133905,62.6875 245.82375,60.9976548 245.82375,58.913125 L245.82375,58.913125 L245.82375,54.086875 C245.82375,52.0023452 244.133905,50.3125 242.049375,50.3125 Z M423.725625,50.3125 C421.641095,50.3125 419.95125,52.0023452 419.95125,54.086875 L419.95125,54.086875 L419.95125,58.913125 C419.95125,60.9976548 421.641095,62.6875 423.725625,62.6875 C425.810155,62.6875 427.5,60.9976548 427.5,58.913125 L427.5,58.913125 L427.5,54.086875 C427.5,52.0023452 425.810155,50.3125 423.725625,50.3125 Z M45.28125,40.82875 C47.8991703,40.5927 50.5288875,40.5138085 53.15625,40.5925 C59.607627,40.7018809 66.0042321,41.7983334 72.12375,43.84375 C74.6289184,44.6961881 77.0442711,45.7927055 79.335,47.1175 C80.1382261,47.5485613 80.7134038,48.3086175 80.91,49.19875 C81.0000546,49.42375 81.0000546,49.64875 81.0000546,49.87375 C81.0066942,51.0112732 80.3974015,52.0633881 79.407447,52.6237397 C78.4174925,53.1840913 77.2018373,53.1649658 76.23,52.57375 L76.23,52.57375 L76.26375,52.63 C74.8159446,51.7798603 73.312545,51.0281605 71.76375,50.38 C68.6798395,49.1712805 65.4790042,48.2853014 62.2125,47.73625 C59.9386121,47.3351126 57.6435966,47.0646689 55.33875,46.92625 C52.9406164,46.7923947 50.5368836,46.7923947 48.13875,46.92625 C45.3931901,47.0477876 42.661869,47.3901433 39.97125,47.95 C38.98125,48.16375 37.99125,48.43375 37.0125,48.6925 C36.4243711,48.861292 35.8006289,48.861292 35.2125,48.6925 C33.9041483,48.3066419 32.9947918,47.1199317 32.9625,45.75625 C32.9152747,44.4021965 33.7609131,43.1771635 35.04375,42.74125 C36,42.42625 36.9675,42.17875 37.94625,41.95375 C40.3627633,41.412073 42.8134744,41.0361971 45.28125,40.82875 Z"/>
</svg>
