<svg xmlns="http://www.w3.org/2000/svg" width="100" height="100" version="1.1" viewBox="0 0 100 100">
  <path fill="#000" fill-rule="nonzero" stroke="none" stroke-width="1" d="M67.9853359,35.0654319 C67.7944146,35.0654319 67.6034933,35.0654319 67.3171113,35.0654319 C68.6535605,32.3925336 69.4172457,29.4332534 69.4172457,26.1875912 C69.4172457,15.6869194 60.8257869,7 50.1341939,7 C39.4426008,7 30.851142,15.5914587 30.851142,26.2830518 C30.851142,29.4332534 31.6148273,32.4879942 32.9512764,35.1608925 C32.7603551,35.1608925 32.5694338,35.1608925 32.2830518,35.1608925 C21.5914587,35.0654319 13,43.7523512 13,54.3484837 C13,64.9446161 21.5914587,73.7269962 32.3785125,73.7269962 C38.3925336,73.7269962 43.8337908,70.9586372 47.3658349,66.4719866 C45.1702399,78.0227255 39.6335221,92.8191267 38.9652975,92.8191267 L61.3985509,92.8191267 C60.6348656,92.8191267 55.1936084,78.0227255 52.9980134,66.4719866 C56.4345969,70.8631766 61.8758541,73.7269962 67.8898752,73.7269962 C78.5814683,73.7269962 87.1729271,65.1355374 87.1729271,54.4439443 C87.1729271,43.7523512 78.7723896,35.0654319 67.9853359,35.0654319 Z"/>
</svg>
