<svg xmlns="http://www.w3.org/2000/svg" width="200" height="200" version="1.1" viewBox="0 0 200 200">
  <path fill="#AC1D1D" fill-rule="nonzero" stroke="none" stroke-width="1" d="M193.733333,54.4 C193.733333,27.1666667 171.777778,5 144.544444,5 C124.911111,5 107.811111,16.6111111 100,33.2888889 C92.1888889,16.6111111 75.0888889,5 55.4555556,5 C28.2222222,5 6.26666667,27.1666667 6.26666667,54.4 C6.26666667,59.8888889 7.11111111,64.9555556 8.8,69.8111111 C15.3444444,94.9333333 40.2555556,112.244444 60.9444444,138.422222 C88.3888889,173.466667 95.1444444,185.077778 100,195 C104.855556,185.077778 111.611111,173.255556 139.266667,138.422222 C159.955556,112.244444 184.866667,94.9333333 191.411111,69.8111111 C192.888889,64.9555556 193.733333,59.6777778 193.733333,54.4 Z"/>
</svg>
