<svg xmlns="http://www.w3.org/2000/svg" width="100" height="100" version="1.1" viewBox="0 0 100 100">
  <path fill="#AC1D1D" fill-rule="nonzero" stroke="none" stroke-width="1" d="M96.8666667,27.2 C96.8666667,13.5833333 85.8888889,2.5 72.2722222,2.5 C62.4555556,2.5 53.9055556,8.30555556 50,16.6444444 C46.0944444,8.30555556 37.5444444,2.5 27.7277778,2.5 C14.1111111,2.5 3.13333333,13.5833333 3.13333333,27.2 C3.13333333,29.9444444 3.55555556,32.4777778 4.4,34.9055556 C7.67222222,47.4666667 20.1277778,56.1222222 30.4722222,69.2111111 C44.1944444,86.7333333 47.5722222,92.5388889 50,97.5 C52.4277778,92.5388889 55.8055556,86.6277778 69.6333333,69.2111111 C79.9777778,56.1222222 92.4333333,47.4666667 95.7055556,34.9055556 C96.4444444,32.4777778 96.8666667,29.8388889 96.8666667,27.2 Z"/>
</svg>
