<svg xmlns="http://www.w3.org/2000/svg" width="100" height="100" version="1.1" viewBox="0 0 100 100">
  <path fill="#000" fill-rule="nonzero" stroke="none" stroke-width="1" d="M69.8136819,33.5678532 C69.6023359,33.5678532 69.39099,33.5678532 69.0739711,33.5678532 C70.5533927,30.60901 71.3987764,27.3331479 71.3987764,23.740267 C71.3987764,12.1162403 61.8882091,2.5 50.0528365,2.5 C38.2174638,2.5 28.7068966,12.0105673 28.7068966,23.8459399 C28.7068966,27.3331479 29.5522803,30.714683 31.0317019,33.6735261 C30.820356,33.6735261 30.60901,33.6735261 30.2919911,33.6735261 C18.4566185,33.5678532 8.94605117,43.1840934 8.94605117,54.9137931 C8.94605117,66.6434928 18.4566185,76.365406 30.3976641,76.365406 C37.0550612,76.365406 43.0784205,73.3008899 46.9883204,68.3342603 C44.557842,81.1206897 38.4288098,97.5 37.689099,97.5 L62.5222469,97.5 C61.6768632,97.5 55.6535039,81.1206897 53.2230256,68.3342603 C57.0272525,73.1952169 63.0506118,76.365406 69.7080089,76.365406 C81.5433815,76.365406 91.0539488,66.8548387 91.0539488,55.0194661 C91.0539488,43.1840934 81.7547275,33.5678532 69.8136819,33.5678532 Z"/>
</svg>
