<svg xmlns="http://www.w3.org/2000/svg" width="100" height="100" version="1.1" viewBox="0 0 100 100">
  <path fill="#AC1D1D" fill-rule="nonzero" stroke="none" stroke-width="1" d="M92.7690595,29.3377927 C92.7690595,17.0233685 82.8411516,7 70.5267274,7 C61.6488868,7 53.9165739,12.2503359 50.3845298,19.7917274 C46.8524856,12.2503359 39.1201727,7 30.2423321,7 C17.9279079,7 8,17.0233685 8,29.3377927 C8,31.8197697 8.38184261,34.1108253 9.14552783,36.3064203 C12.1048081,47.666238 23.3691651,55.4940115 32.724309,67.3311324 C45.1341939,83.1776008 48.1889347,88.4279367 50.3845298,92.9145873 C52.5801248,88.4279367 55.6348656,83.0821401 68.1402111,67.3311324 C77.4953551,55.4940115 88.7597121,47.666238 91.7189923,36.3064203 C92.3872169,34.1108253 92.7690595,31.724309 92.7690595,29.3377927 Z"/>
</svg>
