<svg xmlns="http://www.w3.org/2000/svg" width="180" height="250" version="1.1" viewBox="0 0 180 250">
  <path fill="#272727" fill-rule="nonzero" stroke="none" stroke-width="1" d="M89.76,211.4 C99.2,211.4 107.32,208.96 114.12,204.08 C120.92,199.2 125.92,192.44 129.12,183.8 C131.68,177.4 132.96,169.96 132.96,161.48 C132.96,152.04 131.28,143.56 127.92,136.04 C125.2,129.8 121.2,125.16 115.92,122.12 C114.96,121.64 114.96,121.08 115.92,120.44 C121.2,117.08 125.28,112.44 128.16,106.52 C131.36,99.8 132.96,92.28 132.96,83.96 C132.96,75 131.2,67.16 127.68,60.44 C124.32,53.4 119.32,48 112.68,44.24 C106.04,40.48 98.4,38.6 89.76,38.6 C80.96,38.6 73.24,40.52 66.6,44.36 C59.96,48.2 55.04,53.64 51.84,60.68 C48.64,66.92 47.04,74.68 47.04,83.96 C47.04,92.44 48.64,100.12 51.84,107 C54.72,112.92 58.8,117.56 64.08,120.92 C64.72,121.4 64.72,121.88 64.08,122.36 C58,125.88 53.76,130.84 51.36,137.24 C48.48,143.96 47.04,152.04 47.04,161.48 C47.04,169.8 48.24,177.32 50.64,184.04 C53.84,192.68 58.84,199.4 65.64,204.2 C72.44,209 80.48,211.4 89.76,211.4 Z M89.76,110.84 C86.72,110.84 84.08,109.88 81.84,107.96 C79.6,106.04 77.92,103.4 76.8,100.04 C75.2,95.72 74.4,91.16 74.4,86.36 C74.4,81.88 74.96,78.2 76.08,75.32 L76.08,75.32 L77.28,71.96 C78.4,69.08 80.04,66.8 82.2,65.12 C84.36,63.44 86.88,62.6 89.76,62.6 C92.96,62.6 95.68,63.52 97.92,65.36 C100.16,67.2 101.84,69.8 102.96,73.16 C104.56,76.52 105.36,80.92 105.36,86.36 C105.36,91.16 104.72,95.48 103.44,99.32 C102.32,103 100.6,105.84 98.28,107.84 C95.96,109.84 93.12,110.84 89.76,110.84 Z M89.76,187.4 C86.24,187.4 83.24,186.16 80.76,183.68 C78.28,181.2 76.64,177.72 75.84,173.24 C74.88,169.08 74.4,164.52 74.4,159.56 C74.4,154.12 75.04,149.32 76.32,145.16 C77.28,141 78.92,137.8 81.24,135.56 C83.56,133.32 86.4,132.2 89.76,132.2 C93.12,132.2 95.96,133.28 98.28,135.44 C100.6,137.6 102.24,140.6 103.2,144.44 C104.64,148.76 105.36,153.96 105.36,160.04 C105.36,164.2 104.96,168.44 104.16,172.76 C103.36,177.4 101.68,181 99.12,183.56 C96.56,186.12 93.44,187.4 89.76,187.4 Z"/>
</svg>
