<svg xmlns="http://www.w3.org/2000/svg" width="180" height="250" version="1.1" viewBox="0 0 180 250">
  <path fill="#272727" fill-rule="nonzero" stroke="none" stroke-width="1" d="M89.88,209.96 C102.36,209.96 112.36,206.76 119.88,200.36 C127.4,193.96 131.56,184.84 132.36,173 C133,168.36 133.32,162.76 133.32,156.2 C133.32,149.32 132.84,143.4 131.88,138.44 C130.76,127.24 127.28,118.56 121.44,112.4 C115.6,106.24 107.88,103.16 98.28,103.16 C93.96,103.16 89.84,104 85.92,105.68 C82,107.36 78.68,109.64 75.96,112.52 C75.64,112.84 75.32,112.96 75,112.88 C74.68,112.8 74.52,112.52 74.52,112.04 L74.52,112.04 L74.52,65.24 C74.52,64.44 74.92,64.04 75.72,64.04 L75.72,64.04 L127.8,64.04 C128.6,64.04 129.28,63.76 129.84,63.2 C130.4,62.64 130.68,61.96 130.68,61.16 L130.68,61.16 L130.68,42.92 C130.68,42.12 130.4,41.44 129.84,40.88 C129.28,40.32 128.6,40.04 127.8,40.04 L127.8,40.04 L49.56,40.04 C48.76,40.04 48.08,40.32 47.52,40.88 C46.96,41.44 46.68,42.12 46.68,42.92 L46.68,42.92 L46.68,138.2 C46.68,139 46.96,139.68 47.52,140.24 C48.08,140.8 48.76,141.08 49.56,141.08 L49.56,141.08 L71.88,141.08 C73.48,141.08 74.52,140.2 75,138.44 C77.24,131.08 82.2,127.4 89.88,127.4 C93.56,127.4 96.64,128.56 99.12,130.88 C101.6,133.2 103.24,136.44 104.04,140.6 C105,144.92 105.48,150.04 105.48,155.96 C105.48,162.2 105.16,167.32 104.52,171.32 C103.72,175.96 102.08,179.56 99.6,182.12 C97.12,184.68 93.88,185.96 89.88,185.96 C82.2,185.96 77.4,181 75.48,171.08 C75.16,169.16 75,167.72 75,166.76 C74.84,164.84 73.8,163.88 71.88,163.88 L71.88,163.88 L49.8,163.88 C47.88,163.88 46.92,164.84 46.92,166.76 L46.92,166.76 L47.64,173.48 C49.24,185.64 53.72,194.76 61.08,200.84 C68.44,206.92 78.04,209.96 89.88,209.96 Z"/>
</svg>
