<svg xmlns="http://www.w3.org/2000/svg" width="180" height="250" version="1.1" viewBox="0 0 180 250">
  <path fill="#272727" fill-rule="nonzero" stroke="none" stroke-width="1" d="M90.24,210.92 C103.2,210.92 113.64,207.12 121.56,199.52 C129.48,191.92 133.44,181.64 133.44,168.68 L133.44,168.68 L133.2,90.68 C133.2,85.4 132.8,80.36 132,75.56 C130.4,63.56 125.92,54.48 118.56,48.32 C111.2,42.16 101.68,39.08 90,39.08 C77.36,39.08 67.24,42.4 59.64,49.04 C52.04,55.68 47.92,65.08 47.28,77.24 C46.8,82.2 46.56,87.4 46.56,92.84 C46.56,98.76 46.96,104.36 47.76,109.64 C48.88,121.32 52.88,130.68 59.76,137.72 C66.64,144.76 75.6,148.28 86.64,148.28 C93.52,148.28 99.28,146.2 103.92,142.04 C104.24,141.72 104.56,141.64 104.88,141.8 C105.2,141.96 105.36,142.28 105.36,142.76 L105.36,142.76 L105.36,167.24 C105.36,172.84 103.96,177.4 101.16,180.92 C98.36,184.44 94.72,186.2 90.24,186.2 C86.56,186.2 83.4,184.4 80.76,180.8 C78.12,177.2 76.8,172.68 76.8,167.24 L76.8,167.24 L76.8,162.68 C76.8,161.88 76.52,161.2 75.96,160.64 C75.4,160.08 74.72,159.8 73.92,159.8 L73.92,159.8 L51.84,159.8 C51.04,159.8 50.36,160.08 49.8,160.64 C49.24,161.2 48.96,161.88 48.96,162.68 L48.96,162.68 L48.96,168.68 C48.96,181.48 52.8,191.72 60.48,199.4 C68.16,207.08 78.08,210.92 90.24,210.92 Z M90.24,125.72 C86.56,125.72 83.48,124.52 81,122.12 C78.52,119.72 76.88,116.28 76.08,111.8 C75.28,106.36 74.88,100.68 74.88,94.76 C74.88,88.36 75.04,83.24 75.36,79.4 C76.16,74.12 77.84,70.04 80.4,67.16 C82.96,64.28 86.24,62.84 90.24,62.84 C98.08,62.84 102.88,68.12 104.64,78.68 C105.12,84.6 105.36,89.96 105.36,94.76 C105.36,100.04 105.04,105.48 104.4,111.08 C103.76,115.88 102.2,119.52 99.72,122 C97.24,124.48 94.08,125.72 90.24,125.72 Z"/>
</svg>
