<svg xmlns="http://www.w3.org/2000/svg" width="180" height="250" version="1.1" viewBox="0 0 180 250">
  <path fill="#272727" fill-rule="nonzero" stroke="none" stroke-width="1" d="M132.12,209.96 C132.92,209.96 133.6,209.68 134.16,209.12 C134.72,208.56 135,207.88 135,207.08 L135,207.08 L135,188.84 C135,188.04 134.72,187.36 134.16,186.8 C133.6,186.24 132.92,185.96 132.12,185.96 L132.12,185.96 L79.56,185.96 C79.08,185.96 78.76,185.8 78.6,185.48 C78.44,185.16 78.52,184.84 78.84,184.52 C81.08,181.32 84.6,176.52 89.4,170.12 C91.16,167.72 94.8,162.68 100.32,155 C105.84,147.32 110.6,140.28 114.6,133.88 C120.52,124.92 124.84,116.52 127.56,108.68 C130.28,100.84 131.64,92.92 131.64,84.92 C131.64,71.48 127.76,60.64 120,52.4 C112.24,44.16 102.04,40.04 89.4,40.04 C76.6,40.04 66.16,43.96 58.08,51.8 C50,59.64 45.64,69.96 45,82.76 L45,82.76 L45,93.08 C45,93.88 45.28,94.56 45.84,95.12 C46.4,95.68 47.08,95.96 47.88,95.96 L47.88,95.96 L70.44,95.96 C71.24,95.96 71.92,95.68 72.48,95.12 C73.04,94.56 73.32,93.88 73.32,93.08 L73.32,93.08 L73.32,83.72 C73.16,77.8 74.44,73.04 77.16,69.44 C79.88,65.84 83.56,64.04 88.2,64.04 C92.84,64.04 96.56,65.88 99.36,69.56 C102.16,73.24 103.56,78.28 103.56,84.68 C103.56,94.76 98.92,107.48 89.64,122.84 C85.48,129.72 80.4,137.48 74.4,146.12 C68.4,154.76 62.28,163.24 56.04,171.56 L56.04,171.56 L46.68,184.28 C45.88,185.24 45.48,186.44 45.48,187.88 L45.48,187.88 L45.48,207.08 C45.48,207.88 45.76,208.56 46.32,209.12 C46.88,209.68 47.56,209.96 48.36,209.96 L48.36,209.96 L132.12,209.96 Z"/>
</svg>
