<svg xmlns="http://www.w3.org/2000/svg" width="180" height="250" version="1.1" viewBox="0 0 180 250">
  <path fill="#272727" fill-rule="nonzero" stroke="none" stroke-width="1" d="M89.76,209 C91.52,209 92.64,208.2 93.12,206.6 L93.12,206.6 L133.2,66.68 C133.52,65.08 133.68,63.96 133.68,63.32 L133.68,63.32 L133.68,43.88 C133.68,43.08 133.4,42.4 132.84,41.84 C132.28,41.28 131.6,41 130.8,41 L130.8,41 L49.44,41 C48.64,41 47.96,41.28 47.4,41.84 C46.84,42.4 46.56,43.08 46.56,43.88 L46.56,43.88 L46.32,74.84 C46.32,75.64 46.6,76.32 47.16,76.88 C47.72,77.44 48.4,77.72 49.2,77.72 L49.2,77.72 L66.24,77.72 C67.04,77.72 67.72,77.44 68.28,76.88 C68.84,76.32 69.12,75.64 69.12,74.84 L69.12,74.84 L69.12,66.2 C69.12,65.4 69.52,65 70.32,65 L70.32,65 L102.72,65 C103.68,65 104,65.48 103.68,66.44 L103.68,66.44 L64.08,205.88 C63.6,207.96 64.4,209 66.48,209 L66.48,209 L89.76,209 Z"/>
</svg>
