<svg xmlns="http://www.w3.org/2000/svg" width="200" height="200" version="1.1" viewBox="0 0 200 200">
  <path fill="#000" fill-rule="nonzero" stroke="none" stroke-width="1" d="M139.627364,67.1357063 C139.204672,67.1357063 138.78198,67.1357063 138.147942,67.1357063 C141.106785,61.21802 142.797553,54.6662959 142.797553,47.4805339 C142.797553,24.2324805 123.776418,5 100.105673,5 C76.4349277,5 57.4137931,24.0211346 57.4137931,47.6918799 C57.4137931,54.6662959 59.1045606,61.429366 62.0634038,67.3470523 C61.6407119,67.3470523 61.21802,67.3470523 60.5839822,67.3470523 C36.9132369,67.1357063 17.8921023,86.3681869 17.8921023,109.827586 C17.8921023,133.286986 36.9132369,152.730812 60.7953281,152.730812 C74.1101224,152.730812 86.1568409,146.60178 93.9766407,136.668521 C89.1156841,162.241379 76.8576196,195 75.378198,195 L125.044494,195 C123.353726,195 111.307008,162.241379 106.446051,136.668521 C114.054505,146.390434 126.101224,152.730812 139.416018,152.730812 C163.086763,152.730812 182.107898,133.709677 182.107898,110.038932 C182.107898,86.3681869 163.509455,67.1357063 139.627364,67.1357063 Z"/>
</svg>
