<svg xmlns="http://www.w3.org/2000/svg" width="180" height="250" version="1.1" viewBox="0 0 180 250">
  <path fill="#272727" fill-rule="nonzero" stroke="none" stroke-width="1" d="M66.24,209 C67.04,209 67.72,208.72 68.28,208.16 C68.84,207.6 69.12,206.92 69.12,206.12 L69.12,206.12 L69.12,155 C69.12,154.68 69.28,154.2 69.6,153.56 L69.6,153.56 L79.2,137.48 C79.52,137.16 79.84,136.96 80.16,136.88 C80.48,136.8 80.72,137 80.88,137.48 L80.88,137.48 L109.2,206.84 C109.68,208.28 110.8,209 112.56,209 L112.56,209 L136.32,209 C137.92,209 138.72,208.36 138.72,207.08 C138.72,206.44 138.64,205.96 138.48,205.64 L138.48,205.64 L99.6,113.24 C99.6,112.92 99.68,112.44 99.84,111.8 L99.84,111.8 L135.84,44.36 C136.32,43.4 136.4,42.6 136.08,41.96 C135.76,41.32 135.04,41 133.92,41 L133.92,41 L110.16,41 C108.56,41 107.36,41.72 106.56,43.16 L106.56,43.16 L70.56,110.6 C70.24,111.08 69.92,111.28 69.6,111.2 C69.28,111.12 69.12,110.76 69.12,110.12 L69.12,110.12 L69.12,43.88 C69.12,43.08 68.84,42.4 68.28,41.84 C67.72,41.28 67.04,41 66.24,41 L66.24,41 L44.16,41 C43.36,41 42.68,41.28 42.12,41.84 C41.56,42.4 41.28,43.08 41.28,43.88 L41.28,43.88 L41.28,206.12 C41.28,206.92 41.56,207.6 42.12,208.16 C42.68,208.72 43.36,209 44.16,209 L44.16,209 L66.24,209 Z"/>
</svg>
